<svg xmlns="http://www.w3.org/2000/svg" width="1440" height="900" viewBox="0 0 1440 900">
  <defs>
    <linearGradient id="windowBg" x1="0" y1="0" x2="1" y2="1">
      <stop offset="0" stop-color="#081121"/>
      <stop offset=".52" stop-color="#07101f"/>
      <stop offset="1" stop-color="#050914"/>
    </linearGradient>
    <linearGradient id="sidebarBg" x1="0" y1="0" x2="0" y2="1">
      <stop offset="0" stop-color="#101c34" stop-opacity=".78"/>
      <stop offset="1" stop-color="#070e1d" stop-opacity=".88"/>
    </linearGradient>
    <linearGradient id="cardBg" x1="0" y1="0" x2="0" y2="1">
      <stop offset="0" stop-color="#101c34" stop-opacity=".82"/>
      <stop offset="1" stop-color="#0b1528" stop-opacity=".82"/>
    </linearGradient>
    <style>
      .font { font-family: "Segoe UI", "Microsoft YaHei UI", Arial, sans-serif; }
      .title { fill: #f8fafc; font-size: 28px; font-weight: 650; }
      .subtitle { fill: rgba(255,255,255,.48); font-size: 13px; }
      .card-title { fill: #f8fafc; font-size: 18px; font-weight: 650; }
      .desc { fill: rgba(255,255,255,.42); font-size: 12px; }
      .label { fill: #f8fafc; font-size: 14px; font-weight: 640; }
      .small { fill: rgba(255,255,255,.34); font-size: 12px; }
      .nav { fill: rgba(255,255,255,.72); font-size: 15px; font-weight: 520; }
      .line { stroke: rgba(120,160,255,.12); stroke-width: 1; }
    </style>
  </defs>

  <rect width="1440" height="900" fill="#050914"/>
  <rect x="0.5" y="0.5" width="1439" height="899" rx="18" fill="url(#windowBg)" stroke="rgba(180,205,255,.18)"/>

  <g class="font">
    <rect x="0" y="0" width="248" height="900" fill="url(#sidebarBg)"/>
    <line x1="248" y1="0" x2="248" y2="900" stroke="rgba(120,160,255,.18)"/>
    <text x="34" y="64" fill="#55a2ff" font-size="31">♪</text>
    <text x="76" y="63" fill="#f8fafc" font-size="20" font-weight="650">TaskbarLyrics</text>

    <g transform="translate(14,112)">
      <rect x="0" y="0" width="220" height="48" rx="10" fill="rgba(77,122,255,.15)" stroke="rgba(77,122,255,.18)"/>
      <rect x="8" y="14" width="3" height="20" rx="1.5" fill="#6b91ff"/>
      <text x="34" y="30" fill="#eaf2ff" font-size="17">▷</text>
      <text x="72" y="31" fill="#eaf2ff" font-size="15" font-weight="600">播放器</text>

      <text x="34" y="82" class="nav">Aa</text><text x="72" y="82" class="nav">歌词</text>
      <text x="34" y="134" class="nav">▧</text><text x="72" y="134" class="nav">外观</text>
      <text x="34" y="186" class="nav">▦</text><text x="72" y="186" class="nav">布局</text>
      <text x="34" y="238" class="nav">♢</text><text x="72" y="238" class="nav">调试</text>
    </g>
    <text x="32" y="852" fill="rgba(255,255,255,.66)" font-size="16">⚙</text>
    <text x="72" y="852" fill="rgba(255,255,255,.66)" font-size="14">设置</text>

    <text x="1270" y="25" fill="rgba(255,255,255,.78)" font-size="14">－</text>
    <text x="1320" y="25" fill="rgba(255,255,255,.78)" font-size="14">□</text>
    <text x="1371" y="25" fill="rgba(255,255,255,.78)" font-size="16">×</text>

    <g transform="translate(288,58)">
      <text x="0" y="0" class="title">设置</text>
      <text x="0" y="36" class="subtitle">调整播放器识别、歌词显示、外观和任务栏布局。</text>
      <rect x="1040" y="-18" width="52" height="52" rx="14" fill="rgba(30,41,59,.54)" stroke="rgba(77,122,255,.28)"/>
      <text x="1054" y="17" fill="#6b91ff" font-size="28">♫</text>
    </g>

    <g transform="translate(288,128)">
      <rect width="1096" height="286" rx="17" fill="url(#cardBg)" stroke="rgba(120,160,255,.12)"/>
      <text x="21" y="35" class="card-title">播放器集成</text>
      <text x="21" y="59" class="desc">选择要监听的音乐播放器，并通过拖拽调整优先识别顺序。</text>

      <g transform="translate(21,78)">
        <rect width="521" height="56" rx="11" fill="rgba(11,21,40,.76)" stroke="rgba(120,160,255,.13)"/>
        <rect x="14" y="12" width="32" height="32" rx="9" fill="#facc15"/><text x="24" y="34" fill="#141414" font-size="15" font-weight="800">Q</text>
        <text x="60" y="34" class="label">QQ音乐</text>
        <rect x="463" y="16" width="44" height="24" rx="12" fill="#4d7aff" stroke="#6b91ff"/><circle cx="493" cy="28" r="9" fill="#fff"/>

        <rect x="533" width="521" height="56" rx="11" fill="rgba(11,21,40,.76)" stroke="rgba(120,160,255,.13)"/>
        <rect x="547" y="12" width="32" height="32" rx="9" fill="#ef4444"/><text x="557" y="34" fill="#fff" font-size="15" font-weight="800">易</text>
        <text x="593" y="34" class="label">网易云音乐</text>
        <rect x="996" y="16" width="44" height="24" rx="12" fill="#4d7aff" stroke="#6b91ff"/><circle cx="1026" cy="28" r="9" fill="#fff"/>

        <rect y="66" width="521" height="56" rx="11" fill="rgba(11,21,40,.76)" stroke="rgba(120,160,255,.13)"/>
        <rect x="14" y="78" width="32" height="32" rx="9" fill="#2563eb"/><text x="25" y="100" fill="#fff" font-size="15" font-weight="800">K</text>
        <text x="60" y="100" class="label">酷狗音乐</text>
        <rect x="463" y="82" width="44" height="24" rx="12" fill="#4d7aff" stroke="#6b91ff"/><circle cx="493" cy="94" r="9" fill="#fff"/>

        <rect x="533" y="66" width="521" height="56" rx="11" fill="rgba(11,21,40,.76)" stroke="rgba(120,160,255,.13)"/>
        <rect x="547" y="78" width="32" height="32" rx="9" fill="#22c55e"/><text x="558" y="100" fill="#052e16" font-size="15" font-weight="800">S</text>
        <text x="593" y="100" class="label">Spotify</text>
        <rect x="996" y="82" width="44" height="24" rx="12" fill="#4d7aff" stroke="#6b91ff"/><circle cx="1026" cy="94" r="9" fill="#fff"/>
      </g>

      <g transform="translate(21,216)">
        <rect width="1054" height="50" rx="12" fill="rgba(8,17,34,.5)" stroke="rgba(120,160,255,.12)"/>
        <text x="18" y="31" fill="rgba(255,255,255,.34)" font-size="15">≡</text>
        <text x="52" y="31" class="label">QQ音乐</text>
        <text x="220" y="31" fill="rgba(255,255,255,.34)" font-size="15">≡</text>
        <text x="254" y="31" class="label">网易云音乐</text>
        <text x="470" y="31" fill="rgba(255,255,255,.34)" font-size="15">≡</text>
        <text x="504" y="31" class="label">Spotify</text>
        <text x="686" y="31" fill="rgba(255,255,255,.34)" font-size="15">≡</text>
        <text x="720" y="31" class="label">酷狗音乐</text>
      </g>
    </g>

    <g transform="translate(288,432)">
      <rect width="1096" height="240" rx="17" fill="url(#cardBg)" stroke="rgba(120,160,255,.12)"/>
      <text x="21" y="35" class="card-title">歌词设置</text>
      <text x="21" y="59" class="desc">控制歌词窗口启动行为、翻译与显示辅助项。</text>
      <g transform="translate(21,78)">
        <rect width="1054" height="42" rx="10" fill="rgba(11,21,40,.76)" stroke="rgba(120,160,255,.13)"/>
        <text x="14" y="26" class="label">启动时显示歌词</text><text x="160" y="26" class="small">应用启动后自动显示歌词悬浮窗口。</text>
        <rect x="996" y="9" width="44" height="24" rx="12" fill="#4d7aff" stroke="#6b91ff"/><circle cx="1026" cy="21" r="9" fill="#fff"/>
        <rect y="50" width="1054" height="42" rx="10" fill="rgba(11,21,40,.76)" stroke="rgba(120,160,255,.13)"/>
        <text x="14" y="76" class="label">显示歌词翻译</text><text x="160" y="76" class="small">统一控制各歌词源的翻译显示。</text>
        <rect x="996" y="59" width="44" height="24" rx="12" fill="#334155" stroke="rgba(255,255,255,.18)"/><circle cx="1008" cy="71" r="9" fill="#fff"/>
        <rect y="100" width="1054" height="42" rx="10" fill="rgba(11,21,40,.76)" stroke="rgba(120,160,255,.13)"/>
        <text x="14" y="126" class="label">显示背景</text><text x="160" y="126" class="small">为歌词窗口启用半透明背景。</text>
        <rect x="996" y="109" width="44" height="24" rx="12" fill="#334155" stroke="rgba(255,255,255,.18)"/><circle cx="1008" cy="121" r="9" fill="#fff"/>
      </g>
    </g>

    <g transform="translate(288,690)">
      <rect width="539" height="168" rx="17" fill="url(#cardBg)" stroke="rgba(120,160,255,.12)"/>
      <text x="21" y="35" class="card-title">外观</text>
      <text x="21" y="59" class="desc">调整歌词字体、字号和文字颜色。</text>
      <rect x="21" y="78" width="497" height="38" rx="9" fill="rgba(11,21,40,.76)" stroke="rgba(120,160,255,.13)"/>
      <text x="35" y="102" class="label">字号</text><rect x="260" y="84" width="244" height="26" rx="7" fill="#081122" stroke="rgba(120,160,255,.16)"/><text x="274" y="103" fill="#f8fafc" font-size="13">14</text>
      <rect x="21" y="124" width="497" height="38" rx="9" fill="rgba(11,21,40,.76)" stroke="rgba(120,160,255,.13)"/>
      <text x="35" y="148" class="label">字体</text><rect x="260" y="130" width="244" height="26" rx="7" fill="#081122" stroke="rgba(120,160,255,.16)"/><text x="274" y="149" fill="#f8fafc" font-size="13">SF Pro Display</text>

      <rect x="557" width="539" height="168" rx="17" fill="url(#cardBg)" stroke="rgba(120,160,255,.12)"/>
      <text x="578" y="35" class="card-title">窗口设置</text>
      <text x="578" y="59" class="desc">调整任务栏歌词窗口的位置、宽度与透明度。</text>
      <rect x="578" y="78" width="497" height="38" rx="9" fill="rgba(11,21,40,.76)" stroke="rgba(120,160,255,.13)"/>
      <text x="592" y="102" class="label">背景不透明度</text><rect x="817" y="84" width="244" height="26" rx="7" fill="#081122" stroke="rgba(120,160,255,.16)"/><text x="831" y="103" fill="#f8fafc" font-size="13">0.55</text>
      <rect x="578" y="124" width="497" height="38" rx="9" fill="rgba(11,21,40,.76)" stroke="rgba(120,160,255,.13)"/>
      <text x="592" y="148" class="label">窗口宽度 (px)</text><rect x="817" y="130" width="244" height="26" rx="7" fill="#081122" stroke="rgba(120,160,255,.16)"/><text x="831" y="149" fill="#f8fafc" font-size="13">420</text>
    </g>
  </g>
</svg>
